<svg xmlns="http://www.w3.org/2000/svg" id="Layer_5" enable-background="new 0 0 64 64" height="512" viewBox="0 0 64 64" width="512" class="hovered-paths"><g><g><g><g><path d="m63 11h-7v-8h7z" fill="#f0bc5e" data-original="#F0BC5E" class="active-path" style="fill:#D9B3AA" data-old_color="#f0bc5e"></path></g></g><g><g><path d="m39 41h-14c-1.103 0-2-.897-2-2v-2c0-1.103.897-2 2-2h14c1.103 0 2 .897 2 2v2c0 1.103-.897 2-2 2z" fill="#f0bc5e" data-original="#F0BC5E" class="active-path" style="fill:#D9B3AA" data-old_color="#f0bc5e"></path></g></g><g><g><path d="m39 49h-14c-1.103 0-2-.897-2-2v-2c0-1.103.897-2 2-2h14c1.103 0 2 .897 2 2v2c0 1.103-.897 2-2 2z" fill="#f0bc5e" data-original="#F0BC5E" class="active-path" style="fill:#D9B3AA" data-old_color="#f0bc5e"></path></g></g><g><path d="m62.932 53.942-4-22.003c-.578-4.311-4.529-7.461-9.007-6.866-1.422.189-2.746.743-3.829 1.599-1.415 1.119-2.402 2.633-2.839 4.328h-7.257v-6h-3v-4c0-1.654-1.346-3-3-3h-16c-.552 0-1-.449-1-1s.448-1 1-1h7c1.654 0 3-1.346 3-3s-1.346-3-3-3h-17c-.552 0-1-.449-1-1s.448-1 1-1h39.09c.478 2.833 2.942 5 5.91 5h8v-12h-8c-2.967 0-5.431 2.167-5.91 5h-39.09c-1.654 0-3 1.346-3 3s1.346 3 3 3h17c.552 0 1 .449 1 1s-.448 1-1 1h-7c-1.654 0-3 1.346-3 3s1.346 3 3 3h16c.552 0 1 .449 1 1v4h-3v6h-7.254c-.436-1.694-1.423-3.208-2.839-4.328-1.083-.856-2.407-1.41-3.829-1.599-4.466-.595-8.429 2.56-8.998 6.82l-4.008 22.049c-.367 2.737.701 5.449 2.856 7.254 1.159.972 2.605 1.578 4.182 1.753.308.035.6.051.893.051 3.989 0 7.397-2.982 7.921-6.892.326-1.801 1.892-3.108 3.723-3.108h22.708c1.831 0 3.397 1.308 3.718 3.063.531 3.955 3.939 6.937 7.928 6.937.293 0 .584-.016.89-.05 1.578-.175 3.024-.782 4.185-1.753 2.153-1.806 3.222-4.518 2.856-7.255zm-13.932-50.942h6v8h-6c-2.206 0-4-1.794-4-4s1.794-4 4-4zm-19 24h4v4h-4zm-20.997 34c-.219 0-.438-.012-.67-.038-1.168-.13-2.275-.591-3.12-1.299-1.651-1.383-2.438-3.372-2.166-5.41l1.117-6.143c1.046 1.071 2.03 2.793 3.057 4.594 1.397 2.45 2.963 5.186 5.158 7.224-.971.667-2.13 1.072-3.376 1.072zm41.181-2.471c-.585-.796-.996-1.736-1.136-2.779-.5-2.752-2.895-4.75-5.692-4.75h-22.709c-2.798 0-5.192 1.998-5.699 4.797-.137 1.023-.545 1.949-1.125 2.737-2.015-1.839-3.524-4.468-4.866-6.82-1.43-2.508-2.69-4.707-4.383-5.869l2.479-13.64c.399-2.968 2.956-5.205 5.948-5.205.262 0 .529.018.813.055 1.065.142 2.052.552 2.853 1.185 1.246.987 2.053 2.372 2.271 3.901l.123.859h25.882l.123-.858c.219-1.53 1.025-2.916 2.271-3.901.801-.633 1.787-1.043 2.853-1.185.284-.038.55-.056.813-.056 2.992 0 5.549 2.237 5.954 5.25l2.471 13.591c-1.695 1.161-2.955 3.362-4.386 5.871-1.341 2.352-2.845 4.978-4.858 6.817zm8.606 1.135c-.844.708-1.952 1.168-3.122 1.299-.23.025-.448.037-.667.037-1.245 0-2.402-.404-3.372-1.073 2.192-2.037 3.754-4.773 5.15-7.224 1.027-1.802 2.013-3.526 3.06-4.596l1.113 6.122c.271 2.077-.516 4.057-2.162 5.435z" data-original="#000000" class="hovered-path" style="fill:#000000"></path><path d="m57 41v-2c0-1.103-.897-2-2-2h-2v-2c0-1.103-.897-2-2-2h-2c-1.103 0-2 .897-2 2v2h-2c-1.103 0-2 .897-2 2v2c0 1.103.897 2 2 2h2v2c0 1.103.897 2 2 2h2c1.103 0 2-.897 2-2v-2h2c1.103 0 2-.897 2-2zm-9.414 0h-2.586v-2h2.586l1 1zm3.414 4h-2v-2.586l1-1 1 1zm0-7.414-1 1-1-1v-2.586h2zm4 3.414h-2.586l-1-1 1-1h2.586z" data-original="#000000" class="hovered-path" style="fill:#000000"></path><path d="m13 37h2v2h-2z" data-original="#000000" class="hovered-path" style="fill:#000000"></path><path d="m13 41h2v2h-2z" data-original="#000000" class="hovered-path" style="fill:#000000"></path><path d="m15 39h2v2h-2z" data-original="#000000" class="hovered-path" style="fill:#000000"></path><path d="m11 39h2v2h-2z" data-original="#000000" class="hovered-path" style="fill:#000000"></path><path d="m14 33c-3.859 0-7 3.14-7 7s3.141 7 7 7 7-3.14 7-7-3.141-7-7-7zm0 12c-2.757 0-5-2.243-5-5s2.243-5 5-5 5 2.243 5 5-2.243 5-5 5z" data-original="#000000" class="hovered-path" style="fill:#000000"></path></g></g></g> </svg>