<svg xmlns="http://www.w3.org/2000/svg" id="Layer_5" enable-background="new 0 0 64 64" height="512" viewBox="0 0 64 64" width="512" class=""><g><g><g><path d="m34.202 58.039-.404-1.959c4.162-.859 6.492-2.095 7.202-2.711v-2.369h2v3.077l-.187.262c-.802 1.122-3.776 2.701-8.611 3.7z" data-original="#000000"></path></g><g><path d="m24 59c-6.889 0-11.547-1.118-14.242-2.056l.658-1.889c2.086.727 6.626 1.945 13.584 1.945z" data-original="#000000"></path></g><g><path d="m7.561 56.043c-.894-.438-1.6-.896-2.042-1.325l1.391-1.436c.136.131.556.486 1.53.964z" data-original="#000000"></path></g><g><path d="m42.589 9.845c-2.632-1.188-5.47-1.842-7.989-1.842-1.68 0-3.145.291-4.125.82l-.949-1.76c1.285-.694 3.04-1.061 5.074-1.061 1.979 0 5.114.351 8.812 2.02z" data-original="#000000"></path></g><g><path d="m55.011 31.991c-.56-.003-1.174-.065-1.827-.188l-.367 1.967c.77.144 1.505.219 2.185.222z" data-original="#000000"></path><path d="m38.883 25.667c3.667 3.596 7.861 6.278 11.81 7.554l.615-1.902c-3.659-1.183-7.574-3.696-11.024-7.079z" data-original="#000000"></path><path d="m56.096 13.084-1.582 1.223c5.584 7.222 6.65 16.137 4.279 20.9-5.113 2.443-14.318-1.116-21.6-8.399-7.284-7.284-10.841-16.495-8.399-21.601 4.763-2.37 13.679-1.305 20.9 4.279l1.223-1.582c-8.473-6.554-20.337-7.868-25.389-2.816-2.604 2.604-3.225 6.811-1.747 11.847.592 2.02 1.513 4.081 2.685 6.119-.82-.033-1.643-.054-2.466-.054-14.939 0-23 4.637-23 9v22c0 4.363 8.061 9 23 9s23-4.637 23-9v-13.802c.022.006.044.016.065.022 1.791.525 3.477.785 5.022.785 2.803 0 5.146-.854 6.824-2.532 5.054-5.051 3.737-16.915-2.815-25.389zm-32.096 11.916c1.26 0 2.519.046 3.757.124 1.417 2.111 3.096 4.172 5.021 6.097.181.181.37.347.553.524-2.91-.486-6.07-.745-9.331-.745-7.772 0-14.801 1.424-19.02 3.825-1.266-.896-1.98-1.863-1.98-2.825 0-3.311 8.624-7 21-7zm21 29c0 3.311-8.624 7-21 7s-21-3.689-21-7v-18.203c2.119 1.871 5.846 3.386 10.817 4.311l.365-1.967c-2.831-.526-5.262-1.273-7.132-2.142 3.993-1.871 10.261-2.999 16.95-2.999 4.469 0 8.738.492 12.366 1.419 1.009.801 2.038 1.536 3.079 2.207-1.628.61-3.535 1.127-5.628 1.516l.365 1.967c2.839-.529 5.378-1.288 7.397-2.202 1.139.622 2.282 1.151 3.421 1.596zm2.629-15.699c-4.512-1.323-9.283-4.34-13.437-8.493s-7.17-8.925-8.493-13.436c-1.062-3.622-.902-6.668.401-8.775-.619 5.928 3.018 13.965 9.678 20.625 6.171 6.172 13.527 9.754 19.291 9.754.449 0 .888-.023 1.316-.067-2.106 1.294-5.144 1.451-8.756.392z" data-original="#000000"></path><path d="m41 47h2v2h-2z" data-original="#000000"></path></g><path d="m32 35h-16c-1.654 0-3 1.346-3 3v2c0 6.065 4.935 11 11 11s11-4.935 11-11v-2c0-1.654-1.346-3-3-3zm-8 11c-3.314 0-6-2.686-6-6h12c0 3.314-2.686 6-6 6z" fill="#f0bc5e" data-original="#F0BC5E" class="active-path" data-old_color="#f0bc5e" style="fill:#D9B3AA"></path><g><path d="m24 47c-3.859 0-7-3.141-7-7v-1h14v1c0 3.859-3.141 7-7 7zm-4.899-6c.465 2.279 2.484 4 4.899 4s4.435-1.721 4.899-4z" data-original="#000000"></path></g><path d="m58.794 11.713c-1.226-.414-2.633-1.308-3.916-2.591-1.252-1.252-2.141-2.625-2.568-3.83l-6.177 6.162c-1.804-.717-3.351-.593-4.312.368-.879.879-1.062 2.27-.514 3.914.471 1.411 1.447 2.905 2.749 4.207s2.796 2.278 4.207 2.749c.622.207 1.208.311 1.744.311.88 0 1.623-.277 2.169-.824.96-.96 1.085-2.505.371-4.306z" fill="#f0bc5e" data-original="#F0BC5E" class="active-path" data-old_color="#f0bc5e" style="fill:#D9B3AA"></path><g><path d="m60.175 12.968c-1.736 0-3.982-1.118-6.003-3.14-2.969-2.969-3.991-6.423-2.379-8.035 1.612-1.611 5.067-.591 8.035 2.379 2.969 2.969 3.991 6.423 2.379 8.035-.515.515-1.218.761-2.032.761zm-6.349-9.944c-.28 0-.497.061-.619.183-.262.262-.241.957.052 1.772.395 1.099 1.243 2.351 2.327 3.435s2.336 1.933 3.435 2.327c.814.294 1.512.312 1.772.052.262-.262.241-.957-.052-1.772-.395-1.099-1.243-2.351-2.327-3.435s-2.336-1.933-3.435-2.327c-.433-.156-.833-.235-1.153-.235z" data-original="#000000"></path></g></g></g> </svg>