<svg xmlns="http://www.w3.org/2000/svg" id="Layer_5" enable-background="new 0 0 64 64" height="512" viewBox="0 0 64 64" width="512" class=""><g><g><g><g><path d="m53 51h-20c-1.103 0-2-.897-2-2v-2c0-1.103.897-2 2-2h20c1.103 0 2 .897 2 2v2c0 1.103-.897 2-2 2z" fill="#f0bc5e" data-original="#F0BC5E" class="active-path" style="fill:#D9B3AA" data-old_color="#f0bc5e"></path></g></g><g><g><path d="m27 27h-16c-1.103 0-2-.897-2-2v-2c0-1.103.897-2 2-2h16c1.103 0 2 .897 2 2v2c0 1.103-.897 2-2 2z" fill="#f0bc5e" data-original="#F0BC5E" class="active-path" style="fill:#D9B3AA" data-old_color="#f0bc5e"></path></g></g><g><path d="m58 37h-1v-5c0-2.757-2.243-5-5-5h-15v-7c0-3.519-2.614-6.432-6-6.92v-6.08h2v-3c0-1.654-1.346-3-3-3h-22c-1.654 0-3 1.346-3 3v3h2v6.08c-3.386.488-6 3.401-6 6.92v30c0 2.947 1.833 5.469 4.417 6.5-.258.443-.417.951-.417 1.5v2c0 1.654 1.346 3 3 3s3-1.346 3-3v-2c0-.352-.072-.686-.184-1h12.184v1c0 2.757 2.243 5 5 5h30c2.757 0 5-2.243 5-5v-16c0-2.757-2.243-5-5-5zm3 5v11h-1c-.552 0-1-.448-1-1v-8c0-1.654-1.346-3-3-3h-26c-1.654 0-3 1.346-3 3v8c0 .552-.448 1-1 1h-1v-11c0-1.654 1.346-3 3-3h30c1.654 0 3 1.346 3 3zm-24-5v-4h14v4zm-2 0h-4v-4h4zm-4-8.974c-1.207.914-2 2.348-2 3.974v1h-21c-.352 0-.686.072-1 .184v-12.184c0-1.103.897-2 2-2h20c1.103 0 2 .897 2 2zm-22 7.974v4c0 .552-.448 1-1 1s-1-.448-1-1v-4c0-.552.448-1 1-1s1 .448 1 1zm-2 6.816c.314.112.648.184 1 .184 1.654 0 3-1.346 3-3v-4c0-.352-.072-.686-.184-1h18.184v2h-1c-2.757 0-5 2.243-5 5v7h-16zm46-5.816v-4h2v4zm1.816-6h-23.632c.414-1.161 1.514-2 2.816-2h18c1.302 0 2.402.839 2.816 2zm-25.816-18h-2v-6h2zm-4-6v6h-12v-6zm-18-3c0-.552.448-1 1-1h22c.552 0 1 .448 1 1v1h-24zm4 3v6h-2v-6zm-3 8h22c2.757 0 5 2.243 5 5v7h-1c-.342 0-.677.035-1 .101v-6.101c0-2.206-1.794-4-4-4h-20c-2.206 0-4 1.794-4 4v15 4 9h-2v-29c0-2.757 2.243-5 5-5zm1 43v2c0 .552-.448 1-1 1s-1-.448-1-1v-2c0-.552.448-1 1-1s1 .448 1 1zm-1-3c-2.414 0-4.434-1.721-4.899-4h19.899v4zm50 6h-30c-1.654 0-3-1.346-3-3v-3h1c1.654 0 3-1.346 3-3v-8c0-.552.448-1 1-1h26c.552 0 1 .448 1 1v8c0 1.654 1.346 3 3 3h1v3c0 1.654-1.346 3-3 3z" data-original="#000000" class=""></path><path d="m27 57h2v2h-2z" data-original="#000000" class=""></path><path d="m57 57h2v2h-2z" data-original="#000000" class=""></path></g></g></g> </svg>